<svg xmlns="http://www.w3.org/2000/svg" xmlns:xlink="http://www.w3.org/1999/xlink" viewBox="0,0,256,256" width="100px" height="100px" fill-rule="nonzero"><g fill="#ffffff" fill-rule="nonzero" stroke="none" stroke-width="1" stroke-linecap="butt" stroke-linejoin="miter" stroke-miterlimit="10" stroke-dasharray="" stroke-dashoffset="0" font-family="none" font-weight="none" font-size="none" text-anchor="none" style="mix-blend-mode: normal"><g transform="scale(2.56,2.56)"><path d="M58.9375,7.16992c-0.51336,0.01152 -0.93457,0.40995 -0.97461,0.92188l-0.27734,3.02148c-2.53707,-0.16162 -5.16061,-0.13859 -7.86719,0.11914c-11.17899,1.0646 -21.97883,3.93438 -29.91211,9.05078c-7.93328,5.1164 -13.00823,12.85595 -11.77148,22.66797c1.88281,14.93931 14.51981,27.395 33.03516,30.42969v15.61914c0.00051,0.8629 0.55435,1.6282 1.37386,1.89841c0.8195,0.27021 1.71991,-0.01559 2.23357,-0.70896l12.09961,-16.34961c18.69832,1.09955 33.8211,-14.13052 35.01367,-30.99609c0.5615,-7.93774 -2.84083,-15.581 -8.99805,-21.39062c0.1065,-0.09989 0.18983,-0.22189 0.24414,-0.35742l1.57813,-3.70898c0.13764,-0.31142 0.10738,-0.67147 -0.0803,-0.95555c-0.18768,-0.28408 -0.50699,-0.45317 -0.84744,-0.44875c-0.40108,0.00539 -0.76014,0.24988 -0.91211,0.62109l-1.49219,3.50977c-0.755,-0.63163 -1.54582,-1.23666 -2.36914,-1.81445l1.10547,-3.34766c0.10597,-0.3052 0.05797,-0.6428 -0.12886,-0.90637c-0.18683,-0.26358 -0.48948,-0.42067 -0.81255,-0.42175c-0.43889,-0.00202 -0.82781,0.28234 -0.95898,0.70117l-0.93359,2.82813c-0.94326,-0.58512 -1.92284,-1.1364 -2.93945,-1.64844l1.30469,-3.95312c0.10518,-0.30496 0.0568,-0.64194 -0.12993,-0.90499c-0.18673,-0.26305 -0.48889,-0.41988 -0.81147,-0.42118c-0.43836,-0.00229 -0.82711,0.28116 -0.95898,0.69922l-1.22852,3.7207c-0.87937,-0.38786 -1.78369,-0.74703 -2.70898,-1.07812l0.29102,-1.65039c0.05681,-0.29968 -0.02624,-0.60891 -0.22556,-0.8398c-0.19932,-0.23089 -0.49311,-0.3582 -0.79788,-0.34574c-0.47468,0.01887 -0.87059,0.36906 -0.94727,0.83789l-0.24023,1.35938c-0.96406,-0.29315 -1.95465,-0.54989 -2.96094,-0.7793l0.35547,-3.87305c0.03038,-0.28604 -0.06387,-0.57132 -0.25868,-0.78296c-0.19481,-0.21164 -0.47132,-0.32915 -0.7589,-0.32251c-0.51336,0.01152 -0.93457,0.40995 -0.97461,0.92188l-0.33594,3.65234c-1.07216,-0.19361 -2.16649,-0.34638 -3.2793,-0.46484l0.27539,-3.00586c0.02978,-0.28572 -0.06474,-0.57046 -0.25949,-0.78165c-0.19474,-0.21119 -0.4709,-0.32844 -0.75809,-0.32187zM54.41992,15c1.23716,-0.00755 2.44669,0.04115 3.63281,0.13086c0.18187,0.06953 0.38008,0.08447 0.57031,0.04297c18.31024,1.62851 30.18727,14.52334 29.27734,27.38672c-1.05902,14.97682 -14.94803,28.96043 -31.85547,27.31445c-0.69924,-0.06783 -1.3828,0.23614 -1.80078,0.80078l-9.07422,12.25781v-11.1875c-0.00092,-1.0065 -0.74958,-1.85554 -1.74805,-1.98242c-1.21907,-0.15594 -2.40526,-0.35739 -3.56445,-0.5957l0.9668,-2.92773c0.10518,-0.30496 0.0568,-0.64194 -0.12993,-0.90499c-0.18673,-0.26305 -0.48889,-0.41988 -0.81147,-0.42118c-0.43836,-0.00229 -0.82711,0.28116 -0.95898,0.69922l-1.02344,3.10352c-1.06996,-0.26977 -2.11231,-0.57409 -3.125,-0.91211c0.0048,-0.01228 0.00936,-0.02465 0.01367,-0.03711l1.26172,-3.82617c0.10518,-0.30496 0.0568,-0.64194 -0.12993,-0.90499c-0.18673,-0.26305 -0.48888,-0.41988 -0.81147,-0.42118c-0.43764,-0.00143 -0.82537,0.28186 -0.95703,0.69922l-1.25977,3.81445c-1.04911,-0.40758 -2.06757,-0.84921 -3.04687,-1.32812l1.73633,-5.25781c0.10597,-0.3052 0.05797,-0.6428 -0.12886,-0.90637c-0.18683,-0.26358 -0.48948,-0.42067 -0.81255,-0.42175c-0.43817,-0.00116 -0.82607,0.28304 -0.95703,0.70117l-1.63086,4.93945c-1.37476,-0.76672 -2.67039,-1.60247 -3.88477,-2.50391l2.7207,-3.82227c0.22263,-0.30337 0.25614,-0.70603 0.0867,-1.04203c-0.16944,-0.33599 -0.51314,-0.54844 -0.88943,-0.54977c-0.3297,-0.0011 -0.63877,0.16037 -0.82617,0.43164l-2.66602,3.74609c-0.80564,-0.67537 -1.56622,-1.38274 -2.28711,-2.11523l3.24414,-6.48633c0.16492,-0.3182 0.14697,-0.70032 -0.04706,-1.00165c-0.19403,-0.30133 -0.53447,-0.4758 -0.89239,-0.45733c-0.36508,0.01873 -0.69085,0.23517 -0.84961,0.56445l-2.90625,5.81055c-1.08467,-1.26379 -2.04693,-2.59824 -2.88867,-3.98633c0.11286,-0.09997 0.20167,-0.22416 0.25977,-0.36328l2.78125,-6.11328c0.14481,-0.3078 0.12324,-0.66811 -0.05726,-0.95644c-0.1805,-0.28833 -0.49518,-0.46514 -0.83532,-0.46935c-0.40112,-0.00487 -0.76634,0.2304 -0.92773,0.59766l-2.37109,5.21484c-0.84699,-1.69934 -1.5223,-3.46639 -2.00586,-5.28516l2.06641,-2.41992c0.26026,-0.29622 0.32216,-0.71772 0.15807,-1.07627c-0.16409,-0.35855 -0.52354,-0.58721 -0.91784,-0.58388c-0.29507,0.00279 -0.57384,0.13574 -0.76172,0.36328l-1.07812,1.26367c-0.06562,-0.38616 -0.12474,-0.77456 -0.17383,-1.16406c-1.04226,-8.26898 2.86898,-14.22458 9.9707,-18.80469c7.10172,-4.5801 17.38704,-7.40923 28.12305,-8.43164c1.43688,-0.13683 2.84459,-0.20644 4.22266,-0.21484zM67.26367,22.63086c-0.44072,-0.05475 -0.89266,0.1518 -1.12891,0.56055c-0.315,0.545 -0.12703,1.24264 0.41797,1.55664c0.545,0.315 1.24164,0.12898 1.55664,-0.41602c0.315,-0.545 0.12703,-1.24264 -0.41797,-1.55664c-0.13625,-0.07875 -0.28083,-0.12628 -0.42773,-0.14453zM52.28711,24.61914c-1.887,0 -3.41992,1.53292 -3.41992,3.41992c0,1.887 1.53292,3.41797 3.41992,3.41797c1.887,0 3.41797,-1.53097 3.41797,-3.41797c0,-1.887 -1.53097,-3.41992 -3.41797,-3.41992zM75.64063,29.1875c-0.44072,-0.05438 -0.89266,0.15255 -1.12891,0.56055c-0.315,0.545 -0.12703,1.24264 0.41797,1.55664c0.545,0.315 1.24264,0.12898 1.55664,-0.41602c0.315,-0.545 0.12703,-1.24359 -0.41797,-1.55859c-0.13625,-0.0785 -0.28083,-0.12445 -0.42773,-0.14258zM68.54883,30.96484c-0.44072,-0.05438 -0.8907,0.15255 -1.12695,0.56055c-0.315,0.545 -0.12898,1.24264 0.41602,1.55664c0.545,0.315 1.24164,0.12899 1.55664,-0.41602c0.315,-0.545 0.12899,-1.24164 -0.41602,-1.55664c-0.13625,-0.0785 -0.28278,-0.12641 -0.42969,-0.14453zM52.25781,37.4082c-1.1038,0.01618 -1.9858,0.92353 -1.9707,2.02734v17.0957c-0.0102,0.72127 0.36875,1.39216 0.99175,1.75578c0.623,0.36361 1.39351,0.36361 2.01651,0c0.623,-0.36361 1.00195,-1.0345 0.99175,-1.75578v-17.0957c0.00739,-0.54026 -0.2041,-1.06052 -0.58634,-1.44239c-0.38224,-0.38187 -0.90271,-0.59286 -1.44296,-0.58495z"></path></g></g></svg>