<svg xmlns="http://www.w3.org/2000/svg" xmlns:xlink="http://www.w3.org/1999/xlink" viewBox="0,0,256,256" width="64px" height="64px" fill-rule="nonzero"><g fill="#ffffff" fill-rule="nonzero" stroke="none" stroke-width="1" stroke-linecap="butt" stroke-linejoin="miter" stroke-miterlimit="10" stroke-dasharray="" stroke-dashoffset="0" font-family="none" font-weight="none" font-size="none" text-anchor="none" style="mix-blend-mode: normal"><g transform="scale(4,4)"><path d="M48,6c-4.41016,0 -8,3.58984 -8,8c0,0.04688 0,0.09375 0,0.14063l-19.80469,11.05469c-1.26172,-0.78125 -2.70312,-1.19531 -4.19531,-1.19531c-4.41016,0 -8,3.58984 -8,8c0,4.41016 3.58984,8 8,8c1.49219,0 2.93359,-0.41406 4.19531,-1.19531l19.80469,11.05469c0,0.04688 0,0.09375 0,0.14063c0,0.33984 0.02734,0.67188 0.06641,1c0.01172,0.08984 0.03125,0.17969 0.04297,0.26953c0.04297,0.25391 0.09766,0.50391 0.16016,0.75c0.01953,0.08203 0.03906,0.16406 0.0625,0.24609c0.08984,0.30859 0.19922,0.60938 0.32422,0.89844c0.03516,0.08203 0.07813,0.16016 0.11328,0.23828c0.10156,0.21484 0.21484,0.42188 0.33203,0.62891c0.03516,0.05469 0.05859,0.11719 0.09375,0.17578c0.01563,0.02734 0.03906,0.04688 0.05469,0.07031c1.42188,2.23438 3.91406,3.72266 6.75,3.72266c4.41016,0 8,-3.58984 8,-8c0,-4.41016 -3.58984,-8 -8,-8c-1.45312,0 -2.85547,0.39063 -4.09766,1.13672l-19.90234,-11.10937v-0.05469l19.90234,-11.10937c0.05859,0.03516 0.125,0.0625 0.18359,0.09766c0.18359,0.10156 0.36719,0.19531 0.55859,0.28516c0.12891,0.05859 0.25781,0.11719 0.39063,0.17188c0.17578,0.07031 0.35547,0.13281 0.53906,0.19141c0.14063,0.04297 0.28125,0.08984 0.42578,0.12891c0.19922,0.05078 0.39844,0.08594 0.59766,0.12109c0.13281,0.02344 0.25781,0.05469 0.38672,0.07422c0.33594,0.04297 0.67578,0.06641 1.01563,0.06641c4.41016,0 8,-3.58984 8,-8c0,-4.41016 -3.58984,-8 -8,-8zM48,8c3.30859,0 6,2.69141 6,6c0,3.30859 -2.69141,6 -6,6c-0.28125,0 -0.55859,-0.02734 -0.83203,-0.0625c-0.08984,-0.01562 -0.17969,-0.03516 -0.26953,-0.05078c-0.1875,-0.03516 -0.375,-0.07812 -0.55859,-0.13281c-0.09375,-0.02734 -0.18359,-0.05469 -0.27344,-0.08203c-0.22656,-0.07812 -0.45312,-0.16797 -0.67187,-0.27734c-0.02734,-0.01172 -0.05859,-0.02344 -0.08594,-0.03516c-0.26172,-0.13281 -0.51172,-0.28906 -0.75781,-0.45703c-0.53906,-0.38281 -1.02344,-0.84766 -1.42187,-1.39844c-0.32031,-0.44531 -0.94531,-0.54687 -1.39453,-0.22266c-0.44922,0.32031 -0.55078,0.94531 -0.22656,1.39453c0.21484,0.30078 0.45703,0.57422 0.71094,0.83984l-19.73437,11.01563c-0.34375,0.1875 -0.54297,0.5625 -0.51172,0.95313c0.01563,0.17188 0.02734,0.34375 0.02734,0.51563c0,0.17188 -0.01172,0.34375 -0.02734,0.51563c-0.03125,0.39063 0.16797,0.76172 0.51172,0.95313l20.97266,11.70703c0.33984,0.1875 0.75391,0.16797 1.07031,-0.05859c1.01953,-0.73047 2.22266,-1.11719 3.47266,-1.11719c3.30859,0 6,2.69141 6,6c0,3.30859 -2.69141,6 -6,6c-2.20312,0 -4.12891,-1.19922 -5.17187,-2.97656c-0.09375,-0.15234 -0.17578,-0.3125 -0.25,-0.47266c-0.03125,-0.05859 -0.0625,-0.11719 -0.08984,-0.17578c-0.09375,-0.22266 -0.17187,-0.44531 -0.23828,-0.67187c-0.01953,-0.0625 -0.03125,-0.125 -0.04687,-0.1875c-0.05078,-0.18359 -0.08984,-0.375 -0.12109,-0.5625c-0.01172,-0.06641 -0.01953,-0.13672 -0.03125,-0.20312c-0.02734,-0.25 -0.05078,-0.49609 -0.05078,-0.75c0,-0.20703 0.01172,-0.41016 0.03125,-0.60937v-0.00391c0.05859,-0.59375 0.20703,-1.16797 0.4375,-1.71875c0.21875,-0.50781 -0.02344,-1.09766 -0.53125,-1.3125c-0.50781,-0.21484 -1.09375,0.02344 -1.30859,0.53516c-0.11719,0.27734 -0.21875,0.56641 -0.30078,0.85938l-19.69531,-10.99219c-0.15234,-0.08594 -0.32031,-0.12891 -0.48828,-0.12891c-0.20703,0 -0.41406,0.06641 -0.59375,0.19922c-1.03906,0.76563 -2.26953,1.17188 -3.55078,1.17188c-3.30859,0 -6,-2.69141 -6,-6c0,-3.30859 2.69141,-6 6,-6c1.28125,0 2.51172,0.40625 3.55078,1.17188c0.32031,0.23438 0.73828,0.26172 1.08203,0.06641l20.89063,-11.65625c0.34766,-0.19531 0.54688,-0.57422 0.50781,-0.97266c-0.01953,-0.19922 -0.03125,-0.40234 -0.03125,-0.60937c0,-3.30859 2.69141,-6 6,-6zM16,17c-0.55469,0 -1,0.44922 -1,1v2c0,0.55078 0.44531,1 1,1c0.55469,0 1,-0.44922 1,-1v-2c0,-0.55078 -0.44531,-1 -1,-1zM8.875,18.88281c-0.12891,0.01563 -0.25781,0.05859 -0.375,0.12891c-0.48047,0.27344 -0.64062,0.88672 -0.36719,1.36328l1,1.73438c0.1875,0.32031 0.52344,0.5 0.86719,0.5c0.17188,0 0.34375,-0.04297 0.5,-0.13672c0.48047,-0.27344 0.64063,-0.88672 0.36328,-1.36328l-0.99609,-1.73437c-0.21094,-0.35547 -0.60547,-0.53906 -0.99219,-0.49219zM4,24.00781c-0.38672,-0.04687 -0.78516,0.13281 -0.99219,0.49219c-0.27344,0.47656 -0.10937,1.08984 0.36719,1.36328l1.73438,1c0.15625,0.09375 0.32813,0.13672 0.49609,0.13672c0.34766,0 0.68359,-0.17969 0.86719,-0.5c0.27734,-0.47656 0.11328,-1.08984 -0.36328,-1.36328l-1.73437,-1c-0.11719,-0.07031 -0.24609,-0.11328 -0.375,-0.12891zM2,31c-0.55469,0 -1,0.44922 -1,1c0,0.55078 0.44531,1 1,1h2c0.55469,0 1,-0.44922 1,-1c0,-0.55078 -0.44531,-1 -1,-1zM5.48438,37.00781c-0.12891,0.01563 -0.25781,0.05859 -0.375,0.12891l-1.73437,1c-0.47656,0.27344 -0.64062,0.88672 -0.36719,1.36328c0.1875,0.32031 0.52344,0.5 0.86719,0.5c0.17188,0 0.34375,-0.04297 0.5,-0.13672l1.73438,-1c0.47656,-0.27344 0.64063,-0.88672 0.36719,-1.36328c-0.21094,-0.35937 -0.60937,-0.53906 -0.99219,-0.49219zM10.125,41.40234c-0.39062,-0.05078 -0.78516,0.13281 -0.99219,0.48828l-1,1.73438c-0.27344,0.47656 -0.10937,1.08984 0.36719,1.36328c0.15625,0.09375 0.32813,0.13672 0.5,0.13672c0.34375,0 0.67969,-0.17969 0.86719,-0.5l0.99609,-1.73437c0.27734,-0.47656 0.11719,-1.08984 -0.36328,-1.36328c-0.12109,-0.07031 -0.25,-0.10937 -0.375,-0.125zM16,43c-0.55469,0 -1,0.44922 -1,1v2c0,0.55078 0.44531,1 1,1c0.55469,0 1,-0.44922 1,-1v-2c0,-0.55078 -0.44531,-1 -1,-1z"></path></g></g></svg>